{
  "accessors": [
    {
      "bufferView": 2,
      "componentType": 5126,
      "count": 4771,
      "max": [
        0.99041998386383057,
        0.99041998386383057,
        0.99900001287460327
      ],
      "min": [
        -0.99041998386383057,
        -0.99041998386383057,
        -1.4468899965286255
      ],
      "type": "VEC3"
    },
    {
      "bufferView": 2,
      "byteOffset": 57252,
      "componentType": 5126,
      "count": 4771,
      "max": [
        0.99999994039535522,
        0.99999994039535522,
        1
      ],
      "min": [
        -0.99999994039535522,
        -0.99999994039535522,
        -1
      ],
      "type": "VEC3"
    },
    {
      "bufferView": 3,
      "componentType": 5126,
      "count": 4771,
      "max": [
        0.99996232986450195,
        0.99431842565536499,
        0.99999994039535522,
        1
      ],
      "min": [
        -0.99999755620956421,
        -0.99431836605072021,
        -0.95929473638534546,
        -1
      ],
      "type": "VEC4"
    },
    {
      "bufferView": 1,
      "componentType": 5126,
      "count": 4771,
      "max": [
        1,
        1
      ],
      "min": [
        0,
        0
      ],
      "type": "VEC2"
    },
    {
      "bufferView": 0,
      "componentType": 5125,
      "count": 13248,
      "max": [
        4770
      ],
      "min": [
        0
      ],
      "type": "SCALAR"
    },
    {
      "bufferView": 2,
      "byteOffset": 114504,
      "componentType": 5126,
      "count": 4771,
      "max": [
        0.84852999448776245,
        0.99681001901626587,
        0.85611999034881592
      ],
      "min": [
        -0.94827002286911011,
        -0.79997998476028442,
        -1.362529993057251
      ],
      "type": "VEC3"
    },
    {
      "bufferView": 2,
      "byteOffset": 171756,
      "componentType": 5126,
      "count": 4771,
      "max": [
        0.99999994039535522,
        0.99999994039535522,
        1
      ],
      "min": [
        -0.99999994039535522,
        -0.99999994039535522,
        -1
      ],
      "type": "VEC3"
    },
    {
      "bufferView": 3,
      "byteOffset": 76336,
      "componentType": 5126,
      "count": 4771,
      "max": [
        0.99431765079498291,
        0.99431777000427246,
        0.99999994039535522,
        1
      ],
      "min": [
        -0.99431222677230835,
        -0.99431717395782471,
        -0.95923095941543579,
        -1
      ],
      "type": "VEC4"
    },
    {
      "bufferView": 1,
      "byteOffset": 38168,
      "componentType": 5126,
      "count": 4771,
      "max": [
        1,
        1
      ],
      "min": [
        0,
        0
      ],
      "type": "VEC2"
    },
    {
      "bufferView": 0,
      "byteOffset": 52992,
      "componentType": 5125,
      "count": 13248,
      "max": [
        4770
      ],
      "min": [
        0
      ],
      "type": "SCALAR"
    },
    {
      "bufferView": 2,
      "byteOffset": 229008,
      "componentType": 5126,
      "count": 4771,
      "max": [
        0.99041998386383057,
        0.99041998386383057,
        0.99900001287460327
      ],
      "min": [
        -0.99041998386383057,
        -0.99041998386383057,
        -1.4468899965286255
      ],
      "type": "VEC3"
    },
    {
      "bufferView": 2,
      "byteOffset": 286260,
      "componentType": 5126,
      "count": 4771,
      "max": [
        0.99999994039535522,
        0.99999994039535522,
        1
      ],
      "min": [
        -0.99999994039535522,
        -0.99999994039535522,
        -1
      ],
      "type": "VEC3"
    },
    {
      "bufferView": 3,
      "byteOffset": 152672,
      "componentType": 5126,
      "count": 4771,
      "max": [
        0.99996232986450195,
        0.99431842565536499,
        0.99999994039535522,
        1
      ],
      "min": [
        -0.99999755620956421,
        -0.99431836605072021,
        -0.95929473638534546,
        -1
      ],
      "type": "VEC4"
    },
    {
      "bufferView": 1,
      "byteOffset": 76336,
      "componentType": 5126,
      "count": 4771,
      "max": [
        1,
        1
      ],
      "min": [
        0,
        0
      ],
      "type": "VEC2"
    },
    {
      "bufferView": 0,
      "byteOffset": 105984,
      "componentType": 5125,
      "count": 13248,
      "max": [
        4770
      ],
      "min": [
        0
      ],
      "type": "SCALAR"
    },
    {
      "bufferView": 2,
      "byteOffset": 343512,
      "componentType": 5126,
      "count": 4771,
      "max": [
        0.99041998386383057,
        0.99041998386383057,
        0.99900001287460327
      ],
      "min": [
        -0.99041998386383057,
        -0.99041998386383057,
        -1.4468899965286255
      ],
      "type": "VEC3"
    },
    {
      "bufferView": 2,
      "byteOffset": 400764,
      "componentType": 5126,
      "count": 4771,
      "max": [
        0.99999994039535522,
        0.99999994039535522,
        1
      ],
      "min": [
        -0.99999994039535522,
        -0.99999994039535522,
        -1
      ],
      "type": "VEC3"
    },
    {
      "bufferView": 3,
      "byteOffset": 229008,
      "componentType": 5126,
      "count": 4771,
      "max": [
        0.99996232986450195,
        0.99431842565536499,
        0.99999994039535522,
        1
      ],
      "min": [
        -0.99999755620956421,
        -0.99431836605072021,
        -0.95929473638534546,
        -1
      ],
      "type": "VEC4"
    },
    {
      "bufferView": 1,
      "byteOffset": 114504,
      "componentType": 5126,
      "count": 4771,
      "max": [
        1,
        1
      ],
      "min": [
        0,
        0
      ],
      "type": "VEC2"
    },
    {
      "bufferView": 0,
      "byteOffset": 158976,
      "componentType": 5125,
      "count": 13248,
      "max": [
        4770
      ],
      "min": [
        0
      ],
      "type": "SCALAR"
    },
    {
      "bufferView": 2,
      "byteOffset": 458016,
      "componentType": 5126,
      "count": 4771,
      "max": [
        0.99041998386383057,
        0.99041998386383057,
        0.99900001287460327
      ],
      "min": [
        -0.99041998386383057,
        -0.99041998386383057,
        -1.4468899965286255
      ],
      "type": "VEC3"
    },
    {
      "bufferView": 2,
      "byteOffset": 515268,
      "componentType": 5126,
      "count": 4771,
      "max": [
        0.99999994039535522,
        0.99999994039535522,
        1
      ],
      "min": [
        -0.99999994039535522,
        -0.99999994039535522,
        -1
      ],
      "type": "VEC3"
    },
    {
      "bufferView": 3,
      "byteOffset": 305344,
      "componentType": 5126,
      "count": 4771,
      "max": [
        0.99996232986450195,
        0.99431842565536499,
        0.99999994039535522,
        1
      ],
      "min": [
        -0.99999755620956421,
        -0.99431836605072021,
        -0.95929473638534546,
        -1
      ],
      "type": "VEC4"
    },
    {
      "bufferView": 1,
      "byteOffset": 152672,
      "componentType": 5126,
      "count": 4771,
      "max": [
        1,
        1
      ],
      "min": [
        0,
        0
      ],
      "type": "VEC2"
    },
    {
      "bufferView": 0,
      "byteOffset": 211968,
      "componentType": 5125,
      "count": 13248,
      "max": [
        4770
      ],
      "min": [
        0
      ],
      "type": "SCALAR"
    },
    {
      "bufferView": 4,
      "componentType": 5126,
      "count": 2,
      "max": [
        3.3333299160003662
      ],
      "min": [
        0
      ],
      "type": "SCALAR"
    },
    {
      "bufferView": 5,
      "componentType": 5126,
      "count": 2,
      "max": [
        0,
        0,
        0
      ],
      "min": [
        0,
        0,
        0
      ],
      "type": "VEC3"
    },
    {
      "bufferView": 4,
      "byteOffset": 8,
      "componentType": 5126,
      "count": 81,
      "max": [
        3.3333299160003662
      ],
      "min": [
        0
      ],
      "type": "SCALAR"
    },
    {
      "bufferView": 6,
      "componentType": 5126,
      "count": 81,
      "max": [
        0,
        0,
        1,
        1
      ],
      "min": [
        0,
        0,
        -0.99919998645782471,
        -0
      ],
      "type": "VEC4"
    },
    {
      "bufferView": 4,
      "byteOffset": 332,
      "componentType": 5126,
      "count": 2,
      "max": [
        3.3333299160003662
      ],
      "min": [
        0
      ],
      "type": "SCALAR"
    },
    {
      "bufferView": 5,
      "byteOffset": 24,
      "componentType": 5126,
      "count": 2,
      "max": [
        1,
        1,
        1
      ],
      "min": [
        1,
        1,
        1
      ],
      "type": "VEC3"
    }
  ],
  "animations": [
    {
      "channels": [
        {
          "sampler": 0,
          "target": {
            "node": 5,
            "path": "translation"
          }
        },
        {
          "sampler": 1,
          "target": {
            "node": 5,
            "path": "rotation"
          }
        },
        {
          "sampler": 2,
          "target": {
            "node": 5,
            "path": "scale"
          }
        }
      ],
      "name": "balloon groupAction.001",
      "samplers": [
        {
          "input": 25,
          "interpolation": "LINEAR",
          "output": 26
        },
        {
          "input": 27,
          "interpolation": "LINEAR",
          "output": 28
        },
        {
          "input": 29,
          "interpolation": "LINEAR",
          "output": 30
        }
      ]
    }
  ],
  "asset": {
    "extras": {
      "author": "1catalogue (https://sketchfab.com/1catalogue)",
      "license": "CC-BY-4.0 (http://creativecommons.org/licenses/by/4.0/)",
      "source": "https://sketchfab.com/models/01a4d229631e4aab866e236968881241",
      "title": "Balloons"
    },
    "generator": "Sketchfab-4.23.2",
    "version": "2.0"
  },
  "bufferViews": [
    {
      "buffer": 0,
      "byteLength": 264960,
      "byteOffset": 0,
      "name": "floatBufferViews",
      "target": 34963
    },
    {
      "buffer": 0,
      "byteLength": 190840,
      "byteOffset": 264960,
      "byteStride": 8,
      "name": "floatBufferViews",
      "target": 34962
    },
    {
      "buffer": 0,
      "byteLength": 572520,
      "byteOffset": 455800,
      "byteStride": 12,
      "name": "floatBufferViews",
      "target": 34962
    },
    {
      "buffer": 0,
      "byteLength": 381680,
      "byteOffset": 1028320,
      "byteStride": 16,
      "name": "floatBufferViews",
      "target": 34962
    },
    {
      "buffer": 0,
      "byteLength": 340,
      "byteOffset": 1410000,
      "name": "floatBufferViews"
    },
    {
      "buffer": 0,
      "byteLength": 48,
      "byteOffset": 1410340,
      "byteStride": 12,
      "name": "floatBufferViews"
    },
    {
      "buffer": 0,
      "byteLength": 1296,
      "byteOffset": 1410388,
      "byteStride": 16,
      "name": "floatBufferViews"
    }
  ],
  "buffers": [
    {
      "byteLength": 1411684,
      "uri": "scene.bin"
    }
  ],
  "materials": [
    {
      "alphaMode": "BLEND",
      "doubleSided": true,
      "emissiveFactor": [
        0,
        0,
        0
      ],
      "name": "Material.004",
      "pbrMetallicRoughness": {
        "baseColorFactor": [
          0.78056293730000004,
          0.065680384600000002,
          0.80000007149999997,
          0.81000000000000005
        ],
        "metallicFactor": 0.56999999999999995,
        "roughnessFactor": 0.34999999999999998
      }
    },
    {
      "alphaMode": "BLEND",
      "doubleSided": true,
      "emissiveFactor": [
        0,
        0,
        0
      ],
      "name": "Material.003",
      "pbrMetallicRoughness": {
        "baseColorFactor": [
          0.1100231856,
          0.80000007149999997,
          0.1032832637,
          0.78000000000000003
        ],
        "metallicFactor": 0.68999999999999995,
        "roughnessFactor": 0.37
      }
    },
    {
      "alphaMode": "BLEND",
      "doubleSided": true,
      "emissiveFactor": [
        0,
        0,
        0
      ],
      "name": "Material.002",
      "pbrMetallicRoughness": {
        "baseColorFactor": [
          0.080982595700000007,
          0.21757958829999999,
          0.80000007149999997,
          0.79000000000000004
        ],
        "metallicFactor": 0.65000000000000002,
        "roughnessFactor": 0.28999999999999998
      }
    },
    {
      "alphaMode": "BLEND",
      "doubleSided": true,
      "emissiveFactor": [
        0,
        0,
        0
      ],
      "name": "Material",
      "pbrMetallicRoughness": {
        "baseColorFactor": [
          0.80000007149999997,
          0.58843725920000001,
          0.064221121399999997,
          0.77000000000000002
        ],
        "metallicFactor": 0.66000000000000003,
        "roughnessFactor": 0.35999999999999999
      }
    },
    {
      "alphaMode": "BLEND",
      "doubleSided": true,
      "emissiveFactor": [
        0,
        0,
        0
      ],
      "name": "Material.001",
      "pbrMetallicRoughness": {
        "baseColorFactor": [
          0.80000007149999997,
          0.062578082100000001,
          0.073517635499999998,
          0.80000000000000004
        ],
        "metallicFactor": 0.64000000000000001,
        "roughnessFactor": 0.34999999999999998
      }
    }
  ],
  "meshes": [
    {
      "name": "Sphere.004_0",
      "primitives": [
        {
          "attributes": {
            "NORMAL": 1,
            "POSITION": 0,
            "TANGENT": 2,
            "TEXCOORD_0": 3
          },
          "indices": 4,
          "material": 0,
          "mode": 4
        }
      ]
    },
    {
      "name": "Sphere.003_0",
      "primitives": [
        {
          "attributes": {
            "NORMAL": 6,
            "POSITION": 5,
            "TANGENT": 7,
            "TEXCOORD_0": 8
          },
          "indices": 9,
          "material": 1,
          "mode": 4
        }
      ]
    },
    {
      "name": "Sphere.002_0",
      "primitives": [
        {
          "attributes": {
            "NORMAL": 11,
            "POSITION": 10,
            "TANGENT": 12,
            "TEXCOORD_0": 13
          },
          "indices": 14,
          "material": 2,
          "mode": 4
        }
      ]
    },
    {
      "name": "Sphere.001_0",
      "primitives": [
        {
          "attributes": {
            "NORMAL": 16,
            "POSITION": 15,
            "TANGENT": 17,
            "TEXCOORD_0": 18
          },
          "indices": 19,
          "material": 3,
          "mode": 4
        }
      ]
    },
    {
      "name": "Sphere_0",
      "primitives": [
        {
          "attributes": {
            "NORMAL": 21,
            "POSITION": 20,
            "TANGENT": 22,
            "TEXCOORD_0": 23
          },
          "indices": 24,
          "material": 4,
          "mode": 4
        }
      ]
    }
  ],
  "nodes": [
    {
      "children": [
        1
      ],
      "name": "RootNode (gltf orientation matrix)",
      "rotation": [
        -0.70710678118654746,
        -0,
        -0,
        0.70710678118654757
      ]
    },
    {
      "children": [
        2
      ],
      "name": "RootNode (model correction matrix)"
    },
    {
      "children": [
        3,
        5
      ],
      "name": "Root"
    },
    {
      "children": [
        4
      ],
      "matrix": [
        -0.29086000000000006,
        0.95517000000000007,
        -0.05519000000000001,
        0,
        -0.77110000000000001,
        -0.19988000000000003,
        0.60452000000000006,
        0,
        0.56639000000000006,
        0.21839000000000003,
        0.7946700000000001,
        0,
        4.0762500000000008,
        1.00545,
        5.9038600000000008,
        1
      ],
      "name": "Lamp"
    },
    {
      "name": "Lamp"
    },
    {
      "children": [
        6,
        8,
        10,
        12,
        14
      ],
      "name": "balloon group"
    },
    {
      "children": [
        7
      ],
      "matrix": [
        0.96384000000000014,
        0,
        -0.032300000000000009,
        0,
        -0,
        0.96438000000000001,
        0,
        0,
        0.032300000000000009,
        0,
        0.96384000000000014,
        0,
        0.15345000000000003,
        -0.016800000000000002,
        1.4896799999999999,
        1
      ],
      "name": "Sphere.004"
    },
    {
      "mesh": 0,
      "name": "Sphere.004_0"
    },
    {
      "children": [
        9
      ],
      "matrix": [
        0.85133000000000003,
        -0.52073000000000003,
        -0.063850000000000004,
        0,
        0.52047999999999994,
        0.82305000000000006,
        0.22736000000000003,
        0,
        -0.06584000000000001,
        -0.22679000000000005,
        0.97172000000000003,
        0,
        -0.10948000000000001,
        -1.39394,
        -0.22443000000000005,
        1
      ],
      "name": "Sphere.003"
    },
    {
      "mesh": 1,
      "name": "Sphere.003_0"
    },
    {
      "children": [
        11
      ],
      "matrix": [
        0.94900000000000007,
        -0,
        0.18727000000000002,
        0,
        0,
        0.96730000000000005,
        0,
        0,
        -0.18727000000000002,
        0,
        0.94900000000000007,
        0,
        -1.4107899999999998,
        0.034170000000000013,
        0.21991000000000005,
        1
      ],
      "name": "Sphere.002"
    },
    {
      "mesh": 2,
      "name": "Sphere.002_0"
    },
    {
      "children": [
        13
      ],
      "matrix": [
        0.88777000000000017,
        0.011700000000000004,
        -0.0017200000000000006,
        0,
        -0.011820000000000002,
        0.87814000000000014,
        -0.13042000000000001,
        0,
        -2.0000000000000008e-05,
        0.13043000000000002,
        0.87821000000000005,
        0,
        0.049200000000000008,
        1.0441800000000001,
        -0.42404000000000003,
        1
      ],
      "name": "Sphere.001"
    },
    {
      "mesh": 3,
      "name": "Sphere.001_0"
    },
    {
      "children": [
        15
      ],
      "matrix": [
        0.90195000000000003,
        -0.0022700000000000007,
        -0.099390000000000034,
        0,
        0.017360000000000007,
        0.89682000000000017,
        0.13711999999999999,
        0,
        0.097880000000000023,
        -0.13819000000000001,
        0.8914700000000001,
        0,
        1.37978,
        -0.21941000000000005,
        -0.066570000000000018,
        1
      ],
      "name": "Sphere"
    },
    {
      "mesh": 4,
      "name": "Sphere_0"
    }
  ],
  "scene": 0,
  "scenes": [
    {
      "name": "OSG_Scene",
      "nodes": [
        0
      ]
    }
  ]
}

