{"asset":{"generator":"3D Builder","version":"2.0"},"scene":0,"scenes":[{"nodes":[0]}],"nodes":[{"mesh":0,"matrix":[1,0,0,0,0,-1.1920928955078125E-7,-0.99999988079071045,0,0,0.99999988079071045,-1.1920928955078125E-7,0,-1.7664527893066406,5.4352383613586426,-6.6571146817295812E-8,1]}],"meshes":[{"primitives":[{"attributes":{"POSITION":0},"mode":4,"indices":1,"material":0}]}],"materials":[{"name":"Default Material 6","pbrMetallicRoughness":{"baseColorFactor":[1,1,1,1],"metallicFactor":0,"roughnessFactor":0.40000000596046448},"alphaMode":"OPAQUE"}],"accessors":[{"bufferView":0,"byteOffset":0,"count":40450,"componentType":5126,"type":"VEC3","min":[-3.5750410556793213,-2.7723503112792969,-3.036611795425415],"max":[7.42763090133667,5.0859885215759277,4.9800801277160645]},{"bufferView":1,"byteOffset":0,"count":242688,"componentType":5125,"type":"SCALAR"}],"bufferViews":[{"buffer":0,"byteOffset":0,"byteLength":485400,"byteStride":12,"target":34962},{"buffer":0,"byteOffset":485400,"byteLength":970752,"target":34963}],"buffers":[{"byteLength":1456152,"uri":"cloud_binary.bin"}]}